<svg width="128" height="128" viewBox="0 0 128 128" fill="none" xmlns="http://www.w3.org/2000/svg">
<path fill-rule="evenodd" clip-rule="evenodd" d="M64 124C97.1371 124 124 97.1371 124 64C124 30.8629 97.1371 4 64 4C30.8629 4 4 30.8629 4 64C4 97.1371 30.8629 124 64 124ZM64 128C99.3462 128 128 99.3462 128 64C128 28.6538 99.3462 0 64 0C28.6538 0 0 28.6538 0 64C0 99.3462 28.6538 128 64 128Z" fill="#F8F8F8"/>
<path d="M110 61H113V67H110V61Z" fill="#F8F8F8"/>
<path fill-rule="evenodd" clip-rule="evenodd" d="M110 61V67H113V61H110Z" fill="#F8F8F8"/>
<path d="M89.0566 102.018L90.8239 105.079L85.8972 107.923L84.1299 104.862L89.0566 102.018Z" fill="#F8F8F8"/>
<path fill-rule="evenodd" clip-rule="evenodd" d="M89.0566 102.018L84.1299 104.862L85.8972 107.923L90.8239 105.079L89.0566 102.018Z" fill="#F8F8F8"/>
<path d="M104.696 91.6045L101.748 89.9025L104.593 84.9758L107.541 86.6778L104.696 91.6045Z" fill="#F8F8F8"/>
<path fill-rule="evenodd" clip-rule="evenodd" d="M104.696 91.6045L107.541 86.6778L104.593 84.9758L101.748 89.9025L104.696 91.6045Z" fill="#F8F8F8"/>
<g filter="url(#filter0_d)">
<path d="M104.222 40.2219C104.222 40.2219 104.222 40.222 60.8456 71.3525L64.5 62.5L55.1587 61.1216C104.222 40.2219 104.222 40.2219 104.222 40.2219Z" fill="white"/>
</g>
<path d="M64 113C55.42 113 46.9903 110.747 39.5543 106.467C32.1183 102.186 25.9366 96.028 21.6276 88.6085C17.3186 81.189 15.0333 72.7681 15.0004 64.1881C14.9674 55.6081 17.188 47.1699 21.4399 39.7175C25.6919 32.2651 31.8261 26.0598 39.229 21.7224C46.632 17.3849 55.044 15.0673 63.6238 15.0014C72.2036 14.9356 80.6503 17.1237 88.1189 21.347C95.5876 25.5703 101.816 31.6807 106.182 39.0669L103.011 40.9416C98.973 34.1108 93.2125 28.4598 86.3055 24.5541C79.3984 20.6484 71.5868 18.6247 63.6521 18.6856C55.7174 18.7466 47.9379 20.8899 41.0916 24.9012C34.2452 28.9125 28.5722 34.6513 24.64 41.5433C20.7078 48.4353 18.6542 56.2391 18.6846 64.1739C18.7151 72.1088 20.8285 79.8965 24.8136 86.7582C28.7986 93.6199 34.5155 99.3148 41.3924 103.273C48.2693 107.232 56.0651 109.316 64 109.316V113Z" fill="#F8F8F8"/>
<path d="M64 113C55.42 113 46.9903 110.747 39.5543 106.467C32.1183 102.186 25.9366 96.028 21.6276 88.6085C17.3186 81.189 15.0333 72.7681 15.0004 64.1881C14.9674 55.6081 17.188 47.1699 21.4399 39.7175C25.6919 32.2651 31.8261 26.0598 39.229 21.7224C46.632 17.3849 55.044 15.0673 63.6238 15.0014C72.2036 14.9356 80.6503 17.1237 88.1189 21.347C95.5876 25.5703 101.816 31.6807 106.182 39.0669L103.011 40.9416C98.973 34.1108 93.2125 28.4598 86.3055 24.5541C79.3984 20.6484 71.5868 18.6247 63.6521 18.6856C55.7174 18.7466 47.9379 20.8899 41.0916 24.9012C34.2452 28.9125 28.5722 34.6513 24.64 41.5433C20.7078 48.4353 18.6542 56.2391 18.6846 64.1739C18.7151 72.1088 20.8285 79.8965 24.8136 86.7582C28.7986 93.6199 34.5155 99.3148 41.3924 103.273C48.2693 107.232 56.0651 109.316 64 109.316V113Z" fill="url(#paint0_linear)"/>
<defs>
<filter id="filter0_d" x="48.8867" y="28.8462" width="59.3355" height="59.61" filterUnits="userSpaceOnUse" color-interpolation-filters="sRGB">
<feFlood flood-opacity="0" result="BackgroundImageFix"/>
<feColorMatrix in="SourceAlpha" type="matrix" values="0 0 0 0 0 0 0 0 0 0 0 0 0 0 0 0 0 0 127 0"/>
<feOffset dy="4"/>
<feGaussianBlur stdDeviation="2"/>
<feColorMatrix type="matrix" values="0 0 0 0 0 0 0 0 0 0 0 0 0 0 0 0 0 0 0.25 0"/>
<feBlend mode="normal" in2="BackgroundImageFix" result="effect1_dropShadow"/>
<feBlend mode="normal" in="SourceGraphic" in2="effect1_dropShadow" result="shape"/>
</filter>
<linearGradient id="paint0_linear" x1="64" y1="15" x2="64" y2="113" gradientUnits="userSpaceOnUse">
<stop stop-color="white"/>
<stop offset="1" stop-color="white" stop-opacity="0"/>
</linearGradient>
</defs>
</svg>
