<svg width="128" height="128" viewBox="0 0 128 128" fill="none" xmlns="http://www.w3.org/2000/svg">
<path fill-rule="evenodd" clip-rule="evenodd" d="M64 124C97.1371 124 124 97.1371 124 64C124 30.8629 97.1371 4 64 4C30.8629 4 4 30.8629 4 64C4 97.1371 30.8629 124 64 124ZM64 128C99.3462 128 128 99.3462 128 64C128 28.6538 99.3462 0 64 0C28.6538 0 0 28.6538 0 64C0 99.3462 28.6538 128 64 128Z" fill="#F8F8F8"/>
<path fill-rule="evenodd" clip-rule="evenodd" d="M33.1513 92.2528L22.1784 77.5617C21.1523 76.1879 19.2068 75.9061 17.8331 76.9322C16.4593 77.9583 16.1774 79.9038 17.2035 81.2775L28.1764 95.9687C29.2025 97.3424 31.1479 97.6243 32.5217 96.5982C33.8955 95.5721 34.1774 93.6266 33.1513 92.2528ZM16.6362 75.3298C14.3775 77.0169 13.914 80.2156 15.6011 82.4744L26.574 97.1655C28.2611 99.4242 31.4598 99.8877 33.7186 98.2006C35.9773 96.5135 36.4408 93.3148 34.7537 91.056L23.7808 76.3649C22.0937 74.1062 18.895 73.6427 16.6362 75.3298Z" fill="#F8F8F8"/>
<path fill-rule="evenodd" clip-rule="evenodd" d="M16.0484 82.9714L8.79595 88.3007L18.8407 101.97L26.0932 96.6409L16.0484 82.9714ZM6 87.8733L18.4134 104.766L28.8892 97.0683L16.4758 80.1754L6 87.8733Z" fill="#F8F8F8"/>
<path fill-rule="evenodd" clip-rule="evenodd" d="M40.9035 76.8614C41.7098 76.6711 42.2091 75.8632 42.0188 75.0569C41.8285 74.2506 41.0206 73.7513 40.2143 73.9416C39.4081 74.1319 38.9087 74.9398 39.0991 75.7461C39.2894 76.5524 40.0973 77.0517 40.9035 76.8614ZM41.5927 79.7812C44.0116 79.2102 45.5095 76.7865 44.9386 74.3677C44.3676 71.9489 41.944 70.4509 39.5252 71.0219C37.1063 71.5928 35.6084 74.0165 36.1793 76.4353C36.7503 78.8541 39.1739 80.3521 41.5927 79.7812Z" fill="#F8F8F8"/>
<path fill-rule="evenodd" clip-rule="evenodd" d="M89.9985 31.6667C90.919 31.6667 91.6652 30.9205 91.6652 30C91.6652 29.0795 90.919 28.3333 89.9985 28.3333C89.0781 28.3333 88.3319 29.0795 88.3319 30C88.3319 30.9205 89.0781 31.6667 89.9985 31.6667ZM89.9985 35C92.76 35 94.9985 32.7614 94.9985 30C94.9985 27.2386 92.76 25 89.9985 25C87.2371 25 84.9985 27.2386 84.9985 30C84.9985 32.7614 87.2371 35 89.9985 35Z" fill="#F8F8F8"/>
<path fill-rule="evenodd" clip-rule="evenodd" d="M89.9985 102.667C90.919 102.667 91.6652 101.92 91.6652 101C91.6652 100.08 90.919 99.3333 89.9985 99.3333C89.0781 99.3333 88.3319 100.08 88.3319 101C88.3319 101.92 89.0781 102.667 89.9985 102.667ZM89.9985 106C92.76 106 94.9985 103.761 94.9985 101C94.9985 98.2386 92.76 96 89.9985 96C87.2371 96 84.9985 98.2386 84.9985 101C84.9985 103.761 87.2371 106 89.9985 106Z" fill="#F8F8F8"/>
<path d="M32.2454 64.9523C31.879 64.4397 31.9976 63.7272 32.5101 63.3609V63.3609C33.0227 62.9945 33.7352 63.1131 34.1016 63.6256L36.2637 66.6509C36.63 67.1634 36.5115 67.8759 35.9989 68.2423V68.2423C35.4863 68.6086 34.7738 68.4901 34.4075 67.9775L32.2454 64.9523Z" fill="#F8F8F8"/>
<path d="M45.8293 83.3229C45.463 82.8103 45.5815 82.0978 46.0941 81.7315V81.7315C46.6067 81.3651 47.3192 81.4837 47.6855 81.9962L49.8477 85.0215C50.214 85.534 50.0955 86.2466 49.5829 86.6129V86.6129C49.0703 86.9792 48.3578 86.8607 47.9915 86.3481L45.8293 83.3229Z" fill="#F8F8F8"/>
<path fill-rule="evenodd" clip-rule="evenodd" d="M64.4469 57.4331L32.546 62.3944L22.9478 77.5036L33.5512 91.9541L50.4683 87.4472L64.4469 57.4331ZM61.0521 59.9851L33.7484 64.2315L25.3689 77.4223L34.3558 89.67L49.05 85.7553L61.0521 59.9851Z" fill="#F8F8F8"/>
<path d="M41.8779 73.2639L60.9686 58.7676L62.1181 60.2814L43.0274 74.7777L41.8779 73.2639Z" fill="#F8F8F8"/>
<path d="M91 32L91 62L89 62L89 32L91 32Z" fill="#F8F8F8"/>
<path d="M91 69L91 99L89 99L89 69L91 69Z" fill="#F8F8F8"/>
<path fill-rule="evenodd" clip-rule="evenodd" d="M47 25V30H52V25H47ZM46 23C45.4477 23 45 23.4477 45 24V31C45 31.5523 45.4477 32 46 32H53C53.5523 32 54 31.5523 54 31V24C54 23.4477 53.5523 23 53 23H46Z" fill="#F8F8F8"/>
<path fill-rule="evenodd" clip-rule="evenodd" d="M49 102V107H54V102H49ZM48 100C47.4477 100 47 100.448 47 101V108C47 108.552 47.4477 109 48 109H55C55.5523 109 56 108.552 56 108V101C56 100.448 55.5523 100 55 100H48Z" fill="#F8F8F8"/>
<path fill-rule="evenodd" clip-rule="evenodd" d="M87 63V68H92V63H87ZM86 61C85.4477 61 85 61.4477 85 62V69C85 69.5523 85.4477 70 86 70H93C93.5523 70 94 69.5523 94 69V62C94 61.4477 93.5523 61 93 61H86Z" fill="#F8F8F8"/>
<path d="M90.93 61.2056C90.346 51.6793 86.1517 42.7341 79.2017 36.1928C72.2517 29.6515 63.0691 26.0063 53.5249 26L53.5229 28.9799C62.3087 28.9857 70.7617 32.3412 77.1594 38.3627C83.5571 44.3843 87.4181 52.6186 87.9556 61.3879L90.93 61.2056Z" fill="#F8F8F8"/>
<path d="M55.7944 105.93C65.3207 105.346 74.2659 101.151 80.8072 94.2015C87.3485 87.2515 90.9937 78.0688 91 68.5247L88.0201 68.5227C88.0143 77.3085 84.6588 85.7614 78.6373 92.1591C72.6157 98.5568 64.3814 102.418 55.6121 102.955L55.7944 105.93Z" fill="#F8F8F8"/>
</svg>
