<svg width="133" height="17" viewBox="0 0 133 17" fill="none" xmlns="http://www.w3.org/2000/svg">
<path d="M8.73047 14L3.97461 7.76953L2.38281 9.41992V14H0.517578V0.826172H2.38281V7.39844L7.96875 0.826172H10.166L5.24414 6.41211L10.918 14H8.73047ZM13.1199 0.826172H21.157V2.34961H18.0711V12.4766H21.157V14H13.1199V12.4766H16.2059V2.34961H13.1199V0.826172ZM32.7047 14L29.1305 8.38477H26.8063V14H24.941V0.826172H29.648C31.165 0.826172 32.3206 1.14193 33.1148 1.77344C33.9091 2.39844 34.3063 3.29688 34.3063 4.46875C34.3063 5.4388 34.0003 6.25586 33.3883 6.91992C32.7828 7.58398 31.969 8.00065 30.9469 8.16992L34.8531 14H32.7047ZM32.4313 4.49805C32.4313 3.04622 31.4417 2.32031 29.4625 2.32031H26.8063V6.91016H29.5406C30.4716 6.91016 31.1845 6.70182 31.6793 6.28516C32.1806 5.86849 32.4313 5.27279 32.4313 4.49805ZM37.5434 0.826172H45.5805V2.34961H42.4945V12.4766H45.5805V14H37.5434V12.4766H40.6293V2.34961H37.5434V0.826172ZM50.0969 14V0.826172H51.9621V12.4766H58.5246V14H50.0969ZM62.3086 14V0.826172H64.1738V12.4766H70.7363V14H62.3086ZM72.157 16.1484V15.2109H84.2469V16.1484H72.157ZM95.4039 7.28125C95.4039 9.4362 94.9026 11.0964 93.9 12.2617C92.9039 13.4206 91.4749 14 89.6129 14H85.9996V0.826172H89.0367C91.1786 0.826172 92.7737 1.36328 93.8219 2.4375C94.8766 3.50521 95.4039 5.11979 95.4039 7.28125ZM93.5289 7.28125C93.5289 5.5625 93.1708 4.3125 92.4547 3.53125C91.7385 2.74349 90.6025 2.34961 89.0465 2.34961H87.8648V12.4766H89.4469C90.8271 12.4766 91.8525 12.0436 92.523 11.1777C93.1936 10.3118 93.5289 9.01302 93.5289 7.28125ZM98.2113 14V0.826172H107.186V2.34961H100.077V6.4707H106.6V7.97461H100.077V12.4766H107.586V14H98.2113ZM110.423 14V0.826172H119.398V2.34961H112.288V6.4707H118.812V7.97461H112.288V12.4766H119.798V14H110.423ZM128.016 14H126.082L121.15 0.826172H123.113L126.238 9.63477C126.44 10.1947 126.714 11.1029 127.059 12.3594C127.319 11.3893 127.592 10.4811 127.879 9.63477L130.984 0.826172H132.947L128.016 14Z" fill="white"/>
</svg>
