<svg width="130" height="14" viewBox="0 0 130 14" fill="none" xmlns="http://www.w3.org/2000/svg">
<path d="M8.33047 14L3.57461 7.76953L1.98281 9.41992V14H0.117577V0.826172H1.98281V7.39844L7.56875 0.826172H9.76601L4.84414 6.41211L10.518 14H8.33047ZM12.7199 0.826172H20.757V2.34961H17.6711V12.4766H20.757V14H12.7199V12.4766H15.8059V2.34961H12.7199V0.826172ZM32.3047 14L28.7305 8.38477H26.4062V14H24.541V0.826172H29.248C30.765 0.826172 31.9206 1.14193 32.7148 1.77344C33.5091 2.39844 33.9062 3.29688 33.9062 4.46875C33.9062 5.4388 33.6003 6.25586 32.9883 6.91992C32.3828 7.58398 31.569 8.00065 30.5469 8.16992L34.4531 14H32.3047ZM32.0312 4.49805C32.0312 3.04622 31.0417 2.32031 29.0625 2.32031H26.4062V6.91016H29.1406C30.0716 6.91016 30.7845 6.70182 31.2793 6.28516C31.7806 5.86849 32.0312 5.27279 32.0312 4.49805ZM37.1434 0.826172H45.1805V2.34961H42.0945V12.4766H45.1805V14H37.1434V12.4766H40.2293V2.34961H37.1434V0.826172ZM49.6969 14V0.826172H51.5621V12.4766H58.1246V14H49.6969ZM61.9086 14V0.826172H63.7738V12.4766H70.3363V14H61.9086ZM91.8039 7.28125C91.8039 9.4362 91.3026 11.0964 90.3 12.2617C89.3039 13.4206 87.8749 14 86.0129 14H82.3996V0.826172H85.4367C87.5786 0.826172 89.1737 1.36328 90.2219 2.4375C91.2766 3.50521 91.8039 5.11979 91.8039 7.28125ZM89.9289 7.28125C89.9289 5.5625 89.5708 4.3125 88.8547 3.53125C88.1385 2.74349 87.0025 2.34961 85.4465 2.34961H84.2648V12.4766H85.8469C87.2271 12.4766 88.2525 12.0436 88.923 11.1777C89.5936 10.3118 89.9289 9.01302 89.9289 7.28125ZM94.6113 14V0.826172H103.586V2.34961H96.4766V6.4707H103V7.97461H96.4766V12.4766H103.986V14H94.6113ZM106.823 14V0.826172H115.798V2.34961H108.688V6.4707H115.212V7.97461H108.688V12.4766H116.198V14H106.823ZM124.416 14H122.482L117.55 0.826172H119.513L122.638 9.63477C122.84 10.1947 123.114 11.1029 123.459 12.3594C123.719 11.3893 123.992 10.4811 124.279 9.63477L127.384 0.826172H129.347L124.416 14Z" fill="white"/>
</svg>
